<svg xmlns="http://www.w3.org/2000/svg" viewBox="0 0 1200 630" width="1200" height="630">
  <!-- 背景グラデーション -->
  <defs>
    <linearGradient id="tokenBgGradient" x1="0%" y1="0%" x2="100%" y2="100%">
      <stop offset="0%" stop-color="#5de8e8" />
      <stop offset="100%" stop-color="#3b82f6" />
    </linearGradient>
    
    <linearGradient id="tokenAccentGradient" x1="0%" y1="0%" x2="100%" y2="100%">
      <stop offset="0%" stop-color="#fcd34d" />
      <stop offset="100%" stop-color="#f97316" />
    </linearGradient>
    
    <!-- ピザ柄のパターン -->
    <pattern id="pizzaPattern" x="0" y="0" width="100" height="100" patternUnits="userSpaceOnUse">
      <circle cx="0" cy="0" r="25" fill="#f97316" opacity="0.1" />
      <circle cx="100" cy="100" r="25" fill="#f97316" opacity="0.1" />
      <circle cx="100" cy="0" r="15" fill="#f97316" opacity="0.1" />
      <circle cx="0" cy="100" r="15" fill="#f97316" opacity="0.1" />
      <circle cx="50" cy="50" r="8" fill="#f97316" opacity="0.1" />
    </pattern>
    
    <!-- 円形トークンの外枠 -->
    <filter id="tokenGlow" x="-50%" y="-50%" width="200%" height="200%">
      <feGaussianBlur in="SourceGraphic" stdDeviation="10" result="blur" />
      <feColorMatrix in="blur" type="matrix" values="1 0 0 0 1  0 1 0 0 1  0 0 1 0 1  0 0 0 5 -2" result="glow" />
      <feComposite in="SourceGraphic" in2="glow" operator="over" />
    </filter>
  </defs>
  
  <!-- 背景 -->
  <rect width="1200" height="630" fill="url(#tokenBgGradient)" />
  <rect width="1200" height="630" fill="url(#pizzaPattern)" />
  
  <!-- 装飾要素 -->
  <circle cx="200" cy="150" r="80" fill="white" opacity="0.1" />
  <circle cx="1000" cy="450" r="180" fill="white" opacity="0.1" />
  <circle cx="600" cy="100" r="40" fill="#fcd34d" opacity="0.3" />
  
  <!-- トークン画像 -->
  <g transform="translate(800, 315)">
    <!-- ピザトークンの表現 -->
    <circle cx="0" cy="0" r="160" fill="#fcf3d7" filter="url(#tokenGlow)" />
    <circle cx="0" cy="0" r="150" fill="url(#tokenAccentGradient)" />
    
    <!-- ピザ柄 -->
    <g opacity="0.9">
      <path d="M0,0 L-75,-130 L0,-150 Z" fill="#fcf3d7" />
      <path d="M0,0 L0,-150 L75,-130 Z" fill="#fcf3d7" />
      <path d="M0,0 L75,-130 L130,-75 Z" fill="#fcf3d7" />
      <path d="M0,0 L130,-75 L150,0 Z" fill="#fcf3d7" />
      <path d="M0,0 L150,0 L130,75 Z" fill="#fcf3d7" />
      <path d="M0,0 L130,75 L75,130 Z" fill="#fcf3d7" />
      <path d="M0,0 L75,130 L0,150 Z" fill="#fcf3d7" />
      <path d="M0,0 L0,150 L-75,130 Z" fill="#fcf3d7" />
      <path d="M0,0 L-75,130 L-130,75 Z" fill="#fcf3d7" />
      <path d="M0,0 L-130,75 L-150,0 Z" fill="#fcf3d7" />
      <path d="M0,0 L-150,0 L-130,-75 Z" fill="#fcf3d7" />
      <path d="M0,0 L-130,-75 L-75,-130 Z" fill="#fcf3d7" />
    </g>
    
    <!-- ペッパロニ -->
    <circle cx="-60" cy="-60" r="20" fill="#ef4444" />
    <circle cx="40" cy="-80" r="15" fill="#ef4444" />
    <circle cx="70" cy="0" r="25" fill="#ef4444" />
    <circle cx="-20" cy="50" r="18" fill="#ef4444" />
    <circle cx="30" cy="70" r="22" fill="#ef4444" />
    <circle cx="-80" cy="20" r="15" fill="#ef4444" />
    
    <!-- ピザ絵文字の表現 -->
    <text font-size="100" x="-5" y="35">🍕</text>
  </g>
  
  <!-- タイトルのバックグラウンド -->
  <rect x="100" y="180" width="550" height="280" rx="20" ry="20" fill="black" opacity="0.2" />
  
  <!-- サイトタイトル -->
  <g transform="translate(150, 250)">
    <text font-family="'Noto Sans JP', sans-serif" font-size="42" font-weight="bold" fill="white">
      <tspan x="0" y="0">Web3学生トーク</tspan>
    </text>
    
    <text font-family="'Noto Sans JP', sans-serif" font-size="64" font-weight="bold" fill="white">
      <tspan x="0" y="90">Pizza トークン</tspan>
    </text>
    
    <text font-family="'Noto Sans JP', sans-serif" font-size="28" fill="white" x="0" y="150">
      コミュニティを彩る美味しいトークン
    </text>
    
    <!-- アクセントライン -->
    <rect x="0" y="105" width="420" height="5" fill="url(#tokenAccentGradient)" rx="2" ry="2" />
  </g>
  
  <!-- サイトURL -->
  <g transform="translate(150, 430)">
    <text font-family="'Noto Sans JP', sans-serif" font-size="22" fill="white" x="0" y="35">
      www.web3student-talk.com/token
    </text>
  </g>
</svg>